<svg width="463" height="42" viewBox="0 0 463 42" fill="none" xmlns="http://www.w3.org/2000/svg">
<path fill-rule="evenodd" clip-rule="evenodd" d="M443.598 41.9184C454.986 41.9184 462.823 34.0798 462.823 23.0626L462.875 20.261H443.258V26.214H456.319C455.143 31.6283 450.781 35.4535 443.676 35.4535C441.831 35.4818 439.998 35.135 438.282 34.4328C436.567 33.7307 435.002 32.687 433.678 31.3613C432.354 30.0356 431.296 28.454 430.564 26.7066C429.833 24.9591 429.442 23.0799 429.414 21.1768C429.387 19.2737 429.723 17.3839 430.404 15.6148C431.085 13.8457 432.097 12.2321 433.383 10.8664C434.668 9.50063 436.202 8.40954 437.897 7.6551C439.591 6.90067 441.413 6.49768 443.258 6.46938C445.56 6.39347 447.84 6.94649 449.868 8.07238C451.895 9.19826 453.598 10.857 454.804 12.8804L460.341 9.56719C458.545 6.58016 456.024 4.12738 453.029 2.45056C450.033 0.773728 446.666 -0.0694156 443.258 0.00447024C440.59 0.0274633 437.951 0.592555 435.494 1.66698C433.037 2.7414 430.809 4.30422 428.938 6.2665C427.067 8.22879 425.589 10.5519 424.588 13.1033C423.588 15.6547 423.084 18.3846 423.106 21.1367C423.128 23.8888 423.676 26.6093 424.718 29.1431C425.76 31.6769 427.276 33.9742 429.178 35.904C431.081 37.8337 433.334 39.3581 435.808 40.39C438.282 41.422 440.929 41.9414 443.598 41.9184ZM245.391 20.9877C245.391 8.51595 250.928 0.0307617 260.802 0.0307617C270.675 0.0307617 276.187 8.51595 276.187 20.9877C276.187 33.4595 270.649 41.9447 260.802 41.9447C250.954 41.9447 245.391 33.4595 245.391 20.9877ZM269.761 20.9877C269.761 11.6945 266.626 6.49567 260.802 6.49567C254.977 6.49567 251.842 11.6945 251.842 20.9877C251.842 30.2809 255.029 35.4798 260.802 35.4798C266.574 35.4798 269.761 30.2809 269.761 20.9877ZM165.637 13.513C164.162 15.7899 163.374 18.4667 163.374 21.2051C163.381 24.8749 164.798 28.3928 167.315 30.9878C169.831 33.5828 173.242 35.0435 176.801 35.0506C179.456 35.0506 182.051 34.2387 184.259 32.7173C186.467 31.196 188.188 29.0336 189.205 26.5036C190.221 23.9737 190.487 21.1899 189.969 18.5041C189.451 15.8184 188.172 13.3511 186.294 11.4148C184.416 9.47847 182.024 8.16005 179.42 7.62582C176.815 7.09158 174.116 7.36573 171.663 8.41367C169.209 9.46161 167.112 11.2361 165.637 13.513ZM160.025 32.766C157.803 29.3454 156.615 25.3221 156.609 21.2051C156.609 15.6802 158.736 10.3812 162.522 6.47199C166.307 2.56279 171.443 0.363095 176.801 0.355957C180.793 0.35596 184.695 1.57669 188.015 3.86347C191.335 6.15025 193.923 9.40039 195.452 13.2036C196.981 17.0068 197.382 21.1921 196.605 25.2305C195.828 29.2688 193.908 32.979 191.087 35.8921C188.266 38.8052 184.671 40.7906 180.756 41.5971C176.841 42.4036 172.782 41.9951 169.092 40.4232C165.402 38.8514 162.247 36.1867 160.025 32.766ZM32.9381 41.2162V0.837891H25.8594V28.2327L5.53756 0.837891H0V41.2162H7.07868V13.8215L27.4005 41.2162H32.9381ZM68.3592 33.1138H50.0748L47.0705 41.1948H39.2344L54.9067 0.789551H63.3959L79.0683 41.1948H71.4151L68.3592 33.1138ZM66.008 26.8646L59.1647 8.65523L52.347 26.8646H66.008ZM93.0563 26.5619H101.493L110.348 41.1887H118.185L108.441 25.5652C110.846 24.7519 112.953 23.1978 114.475 21.1123C115.998 19.0269 116.863 16.5104 116.956 13.9017C116.886 12.1158 116.473 10.362 115.739 8.74283C115.005 7.1236 113.966 5.67141 112.682 4.47048C111.399 3.26956 109.896 2.34386 108.262 1.74786C106.628 1.15186 104.896 0.89726 103.165 0.99881H86.0039V41.1887H93.0563V26.5619ZM103.269 20.6628H93.1609L93.0563 7.19442H103.269C105.001 7.19442 106.662 7.90376 107.887 9.16667C109.112 10.4296 109.799 12.1426 109.799 13.9286C109.799 15.7147 109.112 17.4277 107.887 18.6906C106.662 19.9535 105.001 20.6628 103.269 20.6628ZM153.409 34.7509V41.0272H125.016V35.6129L144.188 7.30225H125.434V0.999023H152.912V6.44027L133.74 34.7509H153.409ZM242.607 6.55404V0.789551H217.688V7.14665H235.606L222.05 41.1948H228.815L242.607 6.55404ZM322.836 19.193C323.485 17.5638 323.81 15.8166 323.79 14.0554C323.814 12.2924 323.492 10.5425 322.844 8.91085C322.194 7.27539 321.23 5.79257 320.01 4.55169C318.789 3.31081 317.338 2.33751 315.743 1.69064C314.148 1.04377 312.443 0.736595 310.73 0.787701H296.285V41.193H302.711V27.3204H310.73C312.442 27.3677 314.146 27.0582 315.739 26.4099C317.332 25.7617 318.782 24.7883 320.002 23.5482C321.221 22.3081 322.185 20.8267 322.836 19.193ZM316.974 11.3799C317.282 12.2386 317.415 13.1536 317.365 14.0677C317.411 14.9821 317.275 15.8966 316.966 16.7548C316.657 17.6131 316.18 18.397 315.566 19.0582C314.951 19.7194 314.212 20.2436 313.394 20.599C312.576 20.9545 311.696 21.1338 310.808 21.1252H302.789V7.03691H310.808C311.696 7.0206 312.577 7.19351 313.397 7.5446C314.217 7.8957 314.958 8.41764 315.573 9.07756C316.189 9.73748 316.666 10.5213 316.974 11.3799ZM343.121 11.8054V18.5666C342.014 18.3711 340.879 18.4381 339.801 18.7626C338.723 19.0871 337.731 19.6607 336.9 20.4396C336.069 21.2185 335.422 22.1825 335.006 23.2582C334.59 24.3339 334.417 25.4929 334.501 26.6477V41.1936H328.441V12.3174H334.501V17.1658C335.227 15.4634 336.444 14.033 337.986 13.0691C339.528 12.1051 341.321 11.6544 343.121 11.7785V11.8054ZM347.22 18.2687C345.602 20.783 344.744 23.7362 344.754 26.7539C344.74 28.7575 345.113 30.7441 345.852 32.5973C346.59 34.4506 347.68 36.1334 349.056 37.5477C350.433 38.962 352.068 40.0794 353.868 40.8346C355.668 41.5898 357.595 41.9678 359.538 41.9463C362.465 41.9463 365.325 41.0506 367.757 39.373C370.189 37.6953 372.084 35.3111 373.202 32.522C374.319 29.733 374.609 26.6647 374.035 23.7057C373.46 20.7468 372.047 18.0303 369.974 15.9002C367.901 13.7702 365.261 12.3222 362.39 11.74C359.519 11.1578 356.545 11.4676 353.844 12.6298C351.144 13.792 348.839 15.7544 347.22 18.2687ZM366.775 21.7479C367.74 23.2284 368.258 24.9703 368.263 26.7539L368.237 26.673C368.268 27.8697 368.065 29.0608 367.64 30.1746C367.214 31.2884 366.575 32.3022 365.76 33.155C364.945 34.0078 363.972 34.6818 362.898 35.1371C361.825 35.5924 360.673 35.8196 359.512 35.8046C357.783 35.8046 356.092 35.2762 354.653 34.2858C353.215 33.2954 352.094 31.8877 351.43 30.2403C350.767 28.593 350.592 26.7799 350.928 25.0302C351.263 23.2805 352.094 21.6724 353.316 20.4093C354.537 19.1462 356.093 18.2849 357.789 17.9336C359.485 17.5824 361.244 17.7572 362.843 18.4361C364.442 19.1149 365.81 20.2675 366.775 21.7479ZM418.969 28.9326C418.969 37.4177 412.491 41.9433 405.255 41.9433C402.43 42.1421 399.616 41.4087 397.221 39.8494C394.827 38.2902 392.975 35.986 391.934 33.2697L397.471 29.9832C397.953 31.6892 399.003 33.1651 400.437 34.1507C401.87 35.1362 403.595 35.5683 405.308 35.3706C409.67 35.3706 412.595 32.8656 412.595 28.8251C412.595 24.7846 409.67 22.3602 405.412 22.3602H393.997L395.512 0.648926H417.349V6.89846H401.285L400.606 15.8953H405.542C412.647 15.8953 418.864 20.4208 418.864 28.8251L418.969 28.9326Z" fill="white"/>
</svg>
