<svg fill="none" height="30" viewBox="0 0 311 30" width="311" xmlns="http://www.w3.org/2000/svg"><g fill="#000"><path d="m275.868 13.7156c-2.126-1.6285-4.77-2.4328-7.442-2.2643h-2.885l1.024-6.63424h11.726v-3.836291h-15.259l-2.192 14.321231h7.629c1.699-.1701 3.401.2977 4.774 1.3124.605.484 1.096 1.0955 1.438 1.7911.341.6956.525 1.4579.538 2.2327 0 1.53-.608 2.9974-1.69 4.0792-1.082 1.0819-2.549 1.6897-4.079 1.6897s-2.998-.6078-4.079-1.6897c-1.082-1.0818-1.69-2.5492-1.69-4.0792v-.3317h-4.067v.3317c.165 2.4941 1.273 4.8319 3.098 6.5398s4.231 2.6581 6.731 2.6581c2.499 0 4.905-.9502 6.73-2.6581s2.933-4.0457 3.098-6.5398c-.01-1.3355-.322-2.6515-.911-3.85s-1.441-2.2488-2.492-3.0726z"/><path d="m310.755 13.5715v-.2884h-10.745l-3.923 3.8363h10.745c-.431 2.3916-1.654 4.5689-3.471 6.1817-1.818 1.6128-4.126 2.5674-6.552 2.7103-2.425.1429-4.829-.5342-6.824-1.9224-1.994-1.3882-3.464-3.4068-4.173-5.7313-.708-2.3245-.615-4.8199.266-7.0847.881-2.2649 2.498-4.16772 4.591-5.40254 2.093-1.23483 4.54-1.7299 6.949-1.4056 2.408.32429 4.638 1.44909 6.33 3.19356l.23.23076 2.798-2.72579-.245-.23076c-2.382-2.41958-5.531-3.936765-8.907-4.292288-3.377-.355523-6.773.472678-9.606 2.343098-2.834 1.87042-4.931 4.66693-5.931 7.91166-1.001 3.2446-.843 6.7361.445 9.8776 1.289 3.1415 3.628 5.7381 6.619 7.346 2.99 1.6078 6.446 2.1272 9.777 1.4693 3.332-.6579 6.331-2.4522 8.486-5.0763 2.154-2.6241 3.331-5.915 3.328-9.3105-.018-.5474-.081-1.0924-.187-1.6297z"/><path d="m145.318 4.71607v4.2978l6.029-2.81232v23.23415h4.081v-29.4357z"/><path d="m165.336 25.5852 10.167-11.1916c.793-.8358 1.42-1.8147 1.846-2.8845.328-.8612.494-1.77545.491-2.69692-.129-2.2424-1.11-4.35072-2.743-5.89282s-3.794-2.401178-6.04-2.401178-4.407.859078-6.04 2.401178c-1.634 1.5421-2.615 3.65042-2.743 5.89282v.3317h4.067v-.3317c.093-1.18708.63-2.29545 1.504-3.10389s2.021-1.25748 3.212-1.25748c1.19 0 2.337.44904 3.212 1.25748.874.80844 1.411 1.91681 1.504 3.10389.003.49141-.08.97961-.245 1.44222-.283.5986-.653 1.1526-1.096 1.6441l-12.894 14.1771-.086.0865v3.2882h19.397v-3.8507z"/><path d="m210.636 5.84125c-.498-1.03272-1.229-1.93606-2.134-2.63927-.935-.76109-2.015-1.32524-3.173-1.65854-1.273-.38028-2.595-.569827-3.923-.562465h-10.514v28.455025h3.923v-11.8407h6.591c1.328.0074 2.65-.1822 3.923-.5624 1.146-.3452 2.218-.9029 3.158-1.6442.918-.7261 1.656-1.6544 2.157-2.7126.5-1.0582.749-2.2176.728-3.38795.013-1.18925-.239-2.36655-.736-3.4469zm-9.23 7.91775h-6.591v-8.94174h6.591c.923-.0032 1.841.12798 2.726.38941.689.20085 1.335.52855 1.903.96628.436.35523.786.80376 1.024 1.31243.258.56595.391 1.18085.39 1.80277.004.613-.129 1.21925-.39 1.77395-.235.5387-.608 1.0062-1.081 1.3557-.546.4409-1.173.7693-1.846.9663-.887.2488-1.805.3749-2.726.3749z"/><path d="m237.36 8.5812c-2.095.00285-4.142.62662-5.883 1.7925-1.741 1.1659-3.098 2.8216-3.898 4.7579-.801 1.9364-1.01 4.0665-.6 6.1215.409 2.0549 1.419 3.9424 2.9 5.424 1.482 1.4816 3.369 2.4909 5.424 2.9003 2.055.4095 4.185.2008 6.122-.5997 1.936-.8005 3.592-2.157 4.758-3.898 1.165-1.741 1.789-3.7885 1.792-5.8838-.004-2.814-1.123-5.5117-3.113-7.5015-1.99-1.98983-4.688-3.10939-7.502-3.1132zm0 17.3066c-1.341.0115-2.656-.3762-3.776-1.1138-1.121-.7375-1.997-1.7916-2.517-3.0282-.519-1.2366-.66-2.5998-.403-3.9165s.899-2.5272 1.846-3.4778c.946-.9506 2.154-1.5983 3.469-1.8607 1.316-.2625 2.68-.1278 3.919.3868 1.239.5147 2.296 1.3861 3.039 2.5034.742 1.1174 1.135 2.4302 1.13 3.7717.007.8862-.16 1.7652-.494 2.5863-.333.8211-.826 1.5682-1.449 2.1982-.624.63-1.365 1.1305-2.183 1.4727-.817.3422-1.694.5193-2.581.5212z"/><path d="m226.227 9.18696c-1.025-.39086-2.121-.56282-3.216-.50479-.597.03403-1.191.11601-1.774.24518-.579.17019-1.135.40737-1.659.70669-.744.44896-1.399 1.03066-1.932 1.71626v-2.43737h-3.909v20.52277h3.909v-11.5377c-.049-.7578.067-1.5171.338-2.2263.271-.7093.692-1.3518 1.234-1.8841.517-.466 1.129-.8154 1.793-1.0244.665-.209 1.366-.2728 2.057-.187.904.0799 1.77.3985 2.51.923l.894-4.15362z"/><path d="m14.7539 7.38441h-14.7539v22.05149h4.02379v-18.0277h10.73011z"/><path d="m72.2261.0432879h-4.0094v29.3924121h4.0094z"/><path d="m60.1839 7.3843v2.6969c-1.0079-1.19721-2.3174-2.10342-3.793-2.62481-1.5736-.49366-3.2347-.64426-4.8714-.44163-1.6366.20263-3.2108.75377-4.6165 1.61627-1.4056.8625-2.6101 2.01627-3.5321 3.38367s-1.5401 2.9165-1.8127 4.543c-.2727 1.6265-.1935 3.2925.2322 4.8858.4257 1.5932 1.1881 3.0767 2.2357 4.3505 1.0475 1.2737 2.356 2.308 3.8371 3.0333 1.4811.7252 3.1005 1.1246 4.7491 1.171 1.2864.0052 2.5644-.2094 3.7786-.6346 1.4769-.5116 2.7876-1.4137 3.793-2.6104v2.6825h4.0094v-22.0515zm-7.5716 18.7489c-1.5216.0028-3.0098-.446-4.2762-1.2895-1.2663-.8436-2.2538-2.044-2.8374-3.4492s-.737-2.952-.4409-4.4445c.2962-1.4925 1.0286-2.8635 2.1045-3.9394s2.4469-1.8084 3.9394-2.1045c1.4925-.2962 3.0393-.1427 4.4445.4409s2.6056 1.5711 3.4492 2.8374c.8435 1.2664 1.2923 2.7546 1.2895 4.2761-.0153 2.0263-.8299 3.9645-2.2667 5.3933-1.4368 1.4287-3.3797 2.2323-5.4059 2.2361z"/><path d="m107.287 11.9849c-.615-1.5355-1.679-2.84978-3.053-3.77093-1.374-.92116-2.994-1.40637-4.6485-1.3922-1.4279-.01117-2.8358.33539-4.0954 1.00801s-2.3307 1.64991-3.1157 2.84272c-.6456-1.19229-1.6082-2.18294-2.7815-2.86249-1.1733-.67954-2.5117-1.02155-3.8671-.98824-1.044-.01499-2.078.20392-3.0264.64065-.9483.43673-1.7868 1.0802-2.454 1.88323v-1.9614h-4.0094v22.05155h4.0094v-13.2829c-.0258-.8203.1064-1.638.3893-2.4085.3804-.8918 1.0145-1.6522 1.8235-2.1866.809-.5345 1.7572-.8194 2.7267-.8194.9696 0 1.9178.2849 2.7268.8194.809.5344 1.4431 1.2948 1.8235 2.1866.2829.7705.4151 1.5882.3894 2.4085v13.2829h4.0093v-13.2829c-.0257-.8203.1065-1.638.3894-2.4085.3804-.8918 1.0145-1.6522 1.8235-2.1866.809-.5345 1.7572-.8194 2.7267-.8194s1.9175.2849 2.7265.8194c.809.5344 1.443 1.2948 1.824 2.1866.283.7705.415 1.5882.389 2.4085v13.2829h4.01v-12.6483c.061-1.633-.189-3.2628-.736-4.8026z"/><path d="m35.5507 10.1391c-1.0862-1.08905-2.3762-1.95346-3.7965-2.54392-1.4202-.59046-2.9429-.89541-4.481-.89742s-3.0615.29897-4.4833.88572-2.7141 1.44778-3.8031 2.53392c-1.089 1.0862-1.9535 2.3763-2.5439 3.7965-.5905 1.4203-.8954 2.9429-.8974 4.481s.2989 3.0615.8857 4.4833c.5867 1.4218 1.4478 2.7141 2.534 3.8031 2.2069 2.1561 5.1787 3.349 8.2639 3.3171 3.2903.0505 6.4804-1.1329 8.9417-3.3171.6673-.6209 1.2536-1.3235 1.7451-2.0912l-3.6055-2.0912c-.324.5263-.7115 1.0107-1.1538 1.4422-1.6375 1.4373-3.7488 2.2182-5.9275 2.1922-2.0428.0121-4.0095-.7746-5.4805-2.1922-.9894-1.0228-1.6737-2.3014-1.9758-3.6921h18.9508c.2938-1.8158.16-3.6751-.3908-5.4302-.5508-1.755-1.5034-3.3574-2.7821-4.6797zm-15.7346 6.4755c.2934-1.3895.9791-2.6658 1.9758-3.6776 1.4759-1.4105 3.4389-2.1977 5.4804-2.1977 2.0416 0 4.0045.7872 5.4805 2.1977 1.0013 1.0104 1.692 2.2867 1.9902 3.6776z"/><path d="m130.391 10.139c-2.194-2.19362-5.169-3.42598-8.271-3.42598-3.103 0-6.078 1.23236-8.272 3.42598-2.193 2.1937-3.426 5.1689-3.426 8.2712 0 3.1022 1.233 6.0774 3.426 8.2711 2.214 2.1556 5.19 3.3481 8.279 3.3171 3.285.0483 6.47-1.1351 8.927-3.3171.672-.6206 1.263-1.3232 1.76-2.0912l-3.62-2.0912c-.324.5262-.712 1.0106-1.154 1.4422-1.633 1.4351-3.739 2.2159-5.913 2.1922-2.044.0182-4.013-.7694-5.481-2.1922-.998-1.0183-1.688-2.2983-1.99-3.6921h18.908c.293-1.8158.16-3.6752-.391-5.4302-.551-1.7551-1.504-3.3575-2.782-4.6798zm-15.735 6.4756c.298-1.3909.989-2.6672 1.99-3.6777 1.476-1.4105 3.439-2.1976 5.481-2.1976 2.041 0 4.004.7871 5.48 2.1976.992 1.0151 1.677 2.2901 1.976 3.6777z"/></g></svg>