<svg width="442" height="64" viewBox="0 0 442 64" fill="none" xmlns="http://www.w3.org/2000/svg">
<path d="M212.5 13.75C205.999 13.75 200.249 16.5 196.749 21.5C194.499 17.75 190.249 13.75 182.249 13.75C176.999 13.75 172.499 15.75 169.248 19.25V14.25H161.498V63H169.248V31.75C169.248 25.25 175.249 20.75 180.999 20.75C187.749 20.75 191.999 25.5 191.999 33.25V62.75H199.749V32.5C199.749 26.75 202.749 20.75 211.5 20.75C218.25 20.75 222.75 25.75 222.75 33.25V62.75H230.5V33.5C230.5 21.25 223.5 13.75 212.5 13.75Z" fill="black"/>
<path d="M57.9953 13.5C43.7449 13.5 33.4946 24 33.4946 38.75C33.4946 53.5 43.4949 63.75 57.7453 63.75C67.2455 63.75 74.4957 59.75 78.9959 52L79.4959 51.25L72.7457 47L72.2457 47.75C68.7456 53.75 63.9954 56.5 57.4953 56.5C48.495 56.5 41.4948 49.75 40.9948 40.5H80.7459V38C80.7459 30.75 78.4958 24.5 73.9957 20C69.9956 15.75 64.2454 13.5 57.9953 13.5ZM41.7448 33.5C43.4949 26 49.995 20.75 57.9953 20.75C65.7455 20.75 71.7457 25.75 72.9957 33.5H41.7448Z" fill="black"/>
<path d="M0.743652 63H8.49387V21.75H30.7445V14.25H0.743652V63Z" fill="black"/>
<path d="M261.501 13.5C247.251 13.5 237 24 237 38.75C237 53.5 247.001 63.75 261.251 63.75C270.751 63.75 278.001 59.75 282.502 52L283.002 51.25L276.251 47L275.751 47.75C272.251 53.75 267.501 56.5 261.001 56.5C252.001 56.5 245.001 49.75 244.501 40.5H284.002V38C284.002 30.75 281.752 24.5 277.251 20C273.501 15.75 267.751 13.5 261.501 13.5ZM245.001 33.5C246.751 26 253.251 20.75 261.251 20.75C269.001 20.75 275.001 25.75 276.251 33.5H245.001Z" fill="black"/>
<path d="M151.498 0H143.748V63H151.498V0Z" fill="black"/>
<path d="M125.997 19C121.997 15.75 116.497 13.75 110.997 13.75C103.997 13.75 97.7464 16.25 93.2463 21C88.7461 25.5 86.2461 32 86.2461 39C86.2461 46 88.7461 52.25 93.2463 56.75C97.7464 61.5 103.997 64 110.997 64C116.747 64 121.997 62 125.997 58.75V63.25H133.747V14.5H125.997V19ZM110.497 56.25C100.996 56.25 93.9963 48.75 93.9963 39C93.9963 29 100.996 21.5 110.497 21.5C120.247 21.5 126.747 28.5 126.747 39C126.997 49.25 120.497 56.25 110.497 56.25Z" fill="black"/>
<path d="M357.004 16.5L357.504 16.75L363.254 11.25L362.754 10.75C350.004 -1.25 329.503 -1.25 316.753 10.75C310.502 16.5 307.252 24.5 307.252 32.75C307.252 41 310.752 48.75 316.753 54.75C322.753 60.5 331.003 63.75 339.753 63.75C348.504 63.75 356.504 60.5 362.754 54.75L363.254 54.25L357.504 48.75L357.004 49C347.503 58 332.253 58 322.753 49C318.253 44.5 315.753 38.75 315.753 32.5C315.753 26.25 318.253 20.5 322.753 16C332.253 7.5 347.753 7.5 357.004 16.5Z" fill="black"/>
<path d="M406.755 29.5C402.755 26.25 398.005 24.75 391.255 24.75H385.255L387.505 10.25H412.005V2.5H380.504L375.754 32.5H391.255C397.005 32.5 399.505 34 401.255 35.25C403.755 37.5 405.255 40.5 405.255 44C405.255 50.25 399.755 55.5 393.255 55.5C386.505 55.5 381.254 50.25 381.254 44V43.5H373.254V44C373.254 54.75 382.254 63.5 393.505 63.5C404.755 63.5 413.755 54.75 413.755 44C413.755 38.5 411.255 33.25 406.755 29.5Z" fill="black"/>
<path d="M422.506 10.75V19L433.506 13.75V64H441.256V2L422.506 10.75Z" fill="black"/>
</svg>
