<svg width="2533" height="200" viewBox="0 0 2533 200" fill="none" xmlns="http://www.w3.org/2000/svg">
<path d="M654.14 42.1652C634.196 42.1652 616.532 50.7123 605.706 66.0969C598.298 54.7009 585.193 42.1652 560.691 42.1652C544.167 42.1652 529.922 47.8633 520.235 58.6895V44.4444H496.303V194.872H520.235V98.5755C520.235 78.6325 539.038 64.9573 556.133 64.9573C577.216 64.9573 590.321 79.7721 590.321 103.704V194.872H614.253V100.855C614.253 83.1909 623.94 64.9573 650.721 64.9573C671.804 64.9573 685.479 80.3419 685.479 103.704V194.872H709.411V103.704C709.981 66.0969 688.328 42.1652 654.14 42.1652Z" fill="white"/>
<path d="M177.21 41.5954C133.335 41.5954 101.426 74.0741 101.426 119.088C101.426 164.672 132.195 196.581 176.64 196.581C205.701 196.581 228.493 184.046 242.738 160.114L243.878 157.835L223.365 144.729L222.225 147.009C211.399 165.242 197.154 173.789 176.64 173.789C148.72 173.789 127.067 152.707 125.358 124.786H247.297V116.809C247.297 94.0171 239.889 74.6439 226.784 60.9687C214.248 49.0029 196.584 41.5954 177.21 41.5954ZM126.497 103.704C132.195 80.3419 152.139 64.3875 176.64 64.3875C200.572 64.3875 218.806 80.3419 222.795 103.704H126.497Z" fill="white"/>
<path d="M0 194.872H23.9319V66.6667H92.3089V44.4444H0V194.872Z" fill="white"/>
<path d="M805.709 41.5954C761.833 41.5954 729.924 74.0741 729.924 119.088C729.924 164.672 760.694 196.581 805.139 196.581C834.199 196.581 856.991 184.046 871.236 160.114L872.376 157.835L851.863 144.729L850.723 147.009C839.897 165.242 825.652 173.789 805.139 173.789C777.218 173.789 755.565 152.707 753.856 124.786H875.795V116.809C875.795 94.0171 868.388 74.6439 855.282 60.9687C842.746 49.0029 825.082 41.5954 805.709 41.5954ZM755.566 103.704C761.264 80.3419 781.207 64.3875 805.709 64.3875C829.64 64.3875 847.874 80.3419 851.863 103.704H755.566Z" fill="white"/>
<path d="M465.533 0H441.601V194.872H465.533V0Z" fill="white"/>
<path d="M387.469 58.6895C374.934 48.4331 358.409 42.735 340.745 42.735C319.093 42.735 299.719 50.7123 286.044 64.9573C272.368 79.2023 264.391 98.5755 264.391 120.228C264.391 141.88 271.798 161.254 286.044 175.499C299.719 189.744 319.662 197.721 340.745 197.721C358.409 197.721 374.934 192.023 387.469 181.766V195.442H410.832V44.4444H387.469V58.6895ZM339.606 173.789C310.545 173.789 288.323 150.997 288.323 120.228C288.323 89.4587 310.545 66.6667 339.606 66.6667C369.805 66.6667 390.319 88.3191 390.319 120.228C390.319 152.137 369.805 173.789 339.606 173.789Z" fill="white"/>
<path d="M1009.7 39.886C990.326 39.886 974.372 47.2935 962.976 59.8291V42.1652H939.613V195.442H962.976V109.972C962.976 83.7607 984.058 63.2479 1009.7 63.2479C1035.91 63.2479 1056.42 84.3305 1056.42 109.972V194.872H1079.79V109.972C1079.79 71.2251 1048.45 39.886 1009.7 39.886Z" fill="white"/>
<path d="M1230.79 62.6781C1216.54 49.0029 1197.17 39.886 1175.51 39.886C1132.21 39.886 1096.88 75.2137 1096.88 118.519C1096.88 161.823 1132.21 197.151 1175.51 197.151C1197.17 197.151 1216.54 188.604 1230.79 174.359V194.872H1254.15V42.1652H1230.79V62.6781ZM1176.08 173.219C1145.88 173.219 1121.38 148.718 1121.38 117.949C1121.38 87.7493 1145.88 62.6781 1176.08 62.6781C1206.28 62.6781 1230.79 87.1795 1230.79 117.949C1230.79 148.718 1206.28 173.219 1176.08 173.219Z" fill="white"/>
<path d="M1572.1 38.7464C1528.23 38.7464 1492.33 74.6439 1492.33 118.519C1492.33 162.393 1528.23 198.291 1572.1 198.291C1615.98 198.291 1651.87 162.393 1651.87 118.519C1651.87 74.0741 1615.98 38.7464 1572.1 38.7464ZM1572.1 174.929C1540.76 174.929 1515.69 149.858 1515.69 118.519C1515.69 87.1795 1540.76 62.1083 1572.1 62.1083C1603.44 62.1083 1628.51 87.1795 1628.51 118.519C1628.51 149.858 1603.44 174.929 1572.1 174.929Z" fill="white"/>
<path d="M1307.71 59.2593V42.1652H1284.35V195.442H1307.71V110.541C1307.71 75.2137 1332.21 64.3875 1354.43 64.3875V41.5954C1332.78 42.1652 1316.26 48.4331 1307.71 59.2593Z" fill="white"/>
<path d="M1475.8 71.2251L1482.07 62.6781L1486.06 56.4103V42.1652H1376.09V64.9573H1450.73L1373.81 172.08H1374.38L1369.82 178.348V194.872H1488.91V171.51H1404.58L1475.8 71.2251Z" fill="white"/>
<path d="M1808.57 86.0399C1789.77 75.7835 1771.53 78.6325 1762.99 80.3419L1806.86 9.11681H1777.8L1720.82 108.262C1712.84 122.507 1710.56 139.031 1715.69 154.416C1720.25 169.801 1731.08 182.906 1745.89 190.883C1755.58 196.011 1765.84 198.291 1776.66 198.291C1782.36 198.291 1788.06 197.721 1793.76 196.011C1809.71 191.453 1823.39 181.197 1831.36 167.521C1847.89 138.462 1838.2 103.134 1808.57 86.0399ZM1809.14 154.986C1804.01 163.533 1796.03 169.231 1786.35 172.08C1776.66 174.929 1766.4 173.789 1757.29 168.661C1748.17 164.103 1741.9 156.125 1739.05 147.009C1736.21 137.892 1737.34 128.205 1742.47 119.658C1749.31 108.262 1761.85 100.855 1775.52 100.855C1781.79 100.855 1788.06 102.564 1793.76 105.413C1802.87 109.972 1809.14 117.949 1811.99 127.635C1815.41 137.322 1814.27 147.009 1809.14 154.986Z" fill="white"/>
<path d="M1918.54 6.26781C1878.09 6.26781 1854.16 42.1652 1854.16 102.564C1854.16 162.963 1878.09 198.86 1918.54 198.86C1959 198.86 1982.93 162.963 1982.93 102.564C1982.93 42.1652 1959 6.26781 1918.54 6.26781ZM1918.54 174.359C1894.04 174.359 1879.8 147.578 1879.8 102.564C1879.8 57.5499 1894.61 30.7692 1918.54 30.7692C1943.05 30.7692 1957.29 57.5499 1957.29 102.564C1957.29 147.578 1943.05 174.359 1918.54 174.359Z" fill="white"/>
<path d="M2125.38 62.6781H2096.32L2063.84 108.832L2030.8 62.6781H2002.31L2049.03 128.775L2002.31 194.872H2030.8L2063.84 148.718L2096.32 194.872H2125.38L2078.09 128.775L2125.38 62.6781Z" fill="white"/>
<path d="M2301.45 92.8775C2289.49 82.6211 2274.67 78.0627 2253.59 78.0627H2234.79L2241.62 33.6182H2316.84V9.11681H2219.4L2205.73 102.564H2253.59C2271.82 102.564 2279.23 107.123 2284.93 111.111C2292.91 117.949 2297.47 127.635 2297.47 137.892C2297.47 157.835 2280.94 173.789 2259.86 173.789C2239.35 173.789 2222.25 157.835 2222.25 137.892V136.182H2197.18V137.892C2197.18 170.94 2225.1 197.721 2259.86 197.721C2294.62 197.721 2322.54 170.94 2322.54 137.892C2323.11 120.798 2315.13 104.274 2301.45 92.8775Z" fill="white"/>
<path d="M2531.09 92.8775V91.1681H2459.29L2433.65 115.67H2505.45C2499.75 149.858 2468.98 174.929 2433.65 174.929C2393.19 174.929 2360.71 143.02 2360.71 103.134C2360.71 63.2479 2393.19 31.9088 2433.65 31.9088C2453.59 31.9088 2471.83 39.886 2486.07 53.5613L2487.21 54.7009L2505.45 37.6068L2504.31 36.4672C2485.5 17.6638 2460.43 7.40741 2434.22 7.40741C2380.09 7.40741 2335.64 50.7123 2335.64 103.704C2335.64 156.695 2379.52 200 2434.22 200C2488.35 200 2532.8 156.695 2532.8 103.704C2531.66 100.285 2531.66 96.8661 2531.09 92.8775Z" fill="white"/>
</svg>
